<?xml version="1.0" encoding="UTF-8" standalone="no"?>
<!-- Created with Inkscape (http://www.inkscape.org/) -->

<svg
   xmlns:dc="http://purl.org/dc/elements/1.1/"
   xmlns:cc="http://creativecommons.org/ns#"
   xmlns:rdf="http://www.w3.org/1999/02/22-rdf-syntax-ns#"
   xmlns:svg="http://www.w3.org/2000/svg"
   xmlns="http://www.w3.org/2000/svg"
   xmlns:sodipodi="http://sodipodi.sourceforge.net/DTD/sodipodi-0.dtd"
   xmlns:inkscape="http://www.inkscape.org/namespaces/inkscape"
   width="1000"
   height="200"
   viewBox="0 0 999.99995 200"
   id="svg2"
   version="1.1"
   inkscape:version="0.91 r13725"
   sodipodi:docname="drawing.svg">
  <defs
     id="defs4">
    <clipPath
       id="clipPath4154"
       clipPathUnits="userSpaceOnUse">
      <path
         inkscape:connector-curvature="0"
         id="path4156"
         d="M 0,800 800,800 800,0 0,0 0,800 Z" />
    </clipPath>
  </defs>
  <sodipodi:namedview
     id="base"
     pagecolor="#ffffff"
     bordercolor="#666666"
     borderopacity="1.0"
     inkscape:pageopacity="0.0"
     inkscape:pageshadow="2"
     inkscape:zoom="0.35"
     inkscape:cx="911.96434"
     inkscape:cy="357.8842"
     inkscape:document-units="px"
     inkscape:current-layer="layer1"
     showgrid="false"
     showborder="true"
     units="px"
     inkscape:window-width="1344"
     inkscape:window-height="777"
     inkscape:window-x="-8"
     inkscape:window-y="-8"
     inkscape:window-maximized="1" />
  <metadata
     id="metadata7">
    <rdf:RDF>
      <cc:Work
         rdf:about="">
        <dc:format>image/svg+xml</dc:format>
        <dc:type
           rdf:resource="http://purl.org/dc/dcmitype/StillImage" />
        <dc:title></dc:title>
      </cc:Work>
    </rdf:RDF>
  </metadata>
  <g
     inkscape:label="Layer 1"
     inkscape:groupmode="layer"
     id="layer1"
     transform="translate(0,-852.36216)">
    <g
       id="g4282"
       transform="matrix(1.25,0,0,-1.25,1373.3562,-142.75986)">
      <path
         d="m 0,0 0,0.029 0,0.036 -0.569,102.095 -5.601,0 0.427,-89.836 c -4.106,3.909 -10.132,6.381 -16.855,6.381 C -34.97,18.705 -45,10.343 -45,0.029 c 0,-10.314 10.03,-18.476 22.402,-18.476 12.265,0 22.221,7.607 22.394,18.607 L 0,0.16 0,0 Z"
         style="fill:#31313d;fill-opacity:1;fill-rule:nonzero;stroke:none"
         id="path4284"
         inkscape:connector-curvature="0" />
    </g>
    <g
       id="g4286"
       transform="matrix(1.25,0,0,-1.25,1946.8197,-137.70149)">
      <path
         d="m 0,0 c -9.044,0 -16.402,5.686 -16.402,12.675 0,6.99 7.358,12.677 16.402,12.677 9.044,0 16.401,-5.687 16.401,-12.677 C 16.401,5.686 9.044,0 0,0 m 22.401,12.646 0,0.029 c 0,0.013 -0.001,0.025 -0.001,0.037 l -0.373,102.094 -5.599,0 0.426,-89.835 C 12.748,28.88 6.723,31.352 0,31.352 -12.373,31.352 -22.402,22.99 -22.402,12.675 -22.402,2.361 -12.373,-5.8 0,-5.8 c 12.264,0 22.22,7.606 22.394,18.606 l 0.007,0 0,-0.16 z"
         style="fill:#31313d;fill-opacity:1;fill-rule:nonzero;stroke:none"
         id="path4288"
         inkscape:connector-curvature="0" />
    </g>
    <g
       id="g4290"
       transform="matrix(1.25,0,0,-1.25,1314.1782,485.16889)">
      <path
         d="m 0,0 c -6.148,-2.636 -14.448,-3.08 -18.46,-3.128 0.356,13.415 3.223,21.265 9.16,25.264 2.465,1.661 5.519,2.575 8.599,2.575 5.204,0 9.542,-2.436 11.049,-6.205 C 12.998,11.883 8.355,3.581 0,0 m 15.919,20.738 c -2.424,6.061 -8.948,9.981 -16.62,9.981 -4.323,0 -8.456,-1.238 -11.952,-3.592 -2.597,-1.75 -4.631,-3.948 -6.226,-6.441 l 0.367,77.417 -5.599,0 -0.374,-102.4 10e-4,0 c -0.008,-0.593 -0.015,-1.184 -0.015,-1.765 l 0.003,-2.822 2.848,-0.086 c 0,0 0.89,0.073 2.377,0.073 l 0.002,0 c 4.927,0 14.288,0.354 21.632,3.501 11.324,4.854 17.405,16.513 13.556,26.134"
         style="fill:#31313d;fill-opacity:1;fill-rule:nonzero;stroke:none"
         id="path4292"
         inkscape:connector-curvature="0" />
    </g>
    <g
       id="g4294"
       transform="matrix(1.25,0,0,-1.25,1946.8197,-48.687243)">
      <path
         d="m 0,0 c -12.373,0 -22.402,-8.362 -22.402,-18.676 0,-10.314 10.029,-18.676 22.402,-18.676 12.372,0 22.401,8.362 22.401,18.676 C 22.401,-8.362 12.372,0 0,0 m 0,-6 c 9.044,0 16.401,-5.687 16.401,-12.676 0,-6.99 -7.357,-12.676 -16.401,-12.676 -9.044,0 -16.402,5.686 -16.402,12.676 C -16.402,-11.687 -9.044,-6 0,-6"
         style="fill:#31313d;fill-opacity:1;fill-rule:nonzero;stroke:none"
         id="path4296"
         inkscape:connector-curvature="0" />
    </g>
    <path
       inkscape:connector-curvature="0"
       id="path4300"
       style="fill:#31313d;fill-opacity:1;fill-rule:nonzero;stroke:none"
       d="m 1502.4184,-244.33237 c -22.06,-14.75 -25.0975,-36.485 -25.0975,-36.62875 l 0,-0.2475 -6.6325,0 0.5338,112.29375 c -5.1325,-4.88625 -12.665,-7.97625 -21.0688,-7.97625 -15.4662,0 -28.0025,10.4525 -28.0025,23.345 0,12.8925 12.5363,23.095 28.0025,23.095 15.3313,0 27.7763,-9.5075 27.9925,-23.2575 l 0.425,0 0,0.19875 0,-0.0362 0,-0.045 -0.59,-104.7625 c 3.5788,5.6725 9.8288,12.38375 21.3475,21 22.8025,17.05875 6.3225,34.79375 6.3225,34.79375 14.4688,-7.00125 18.0588,-27.53625 -3.2325,-41.7725" />
    <g
       id="g4302"
       transform="matrix(1.25,0,0,-1.25,1827.3947,-177.32312)">
      <path
         d="M 0,0 C -1.494,1.496 -3.254,2.946 -5.312,4.323 -20.44,14.438 -24.264,28.655 -25.057,32.582 l -0.027,7.456 c 2.879,-4.507 7.953,-9.836 17.07,-16.657 C 3.942,14.438 2.448,5.262 0,0 M -8.014,48.024 C 3.942,39.08 2.448,29.904 0,24.642 c -1.494,1.495 -3.254,2.946 -5.312,4.323 -15.832,10.586 -19.284,25.662 -19.837,28.738 l -0.026,7.123 c 2.863,-4.539 7.946,-9.908 17.161,-16.802 M 1.432,23.098 c 7.74,7.145 8.025,20.695 -6.653,30.509 -17.646,11.8 -19.838,29.188 -19.838,29.303 l 0,0.199 -5.783,0 0.427,-89.836 c -4.106,3.91 -10.133,6.381 -16.855,6.381 -12.373,0 -22.402,-8.362 -22.402,-18.676 0,-10.314 10.029,-18.476 22.402,-18.476 12.263,0 22.221,7.607 22.395,18.607 l -0.184,0 0,-0.16 0,0.029 0,0.037 -0.031,34.235 c 2.897,-4.476 8.01,-9.764 17.028,-16.511 18.243,-13.646 5.199,-27.834 5.199,-27.834 9.7,4.693 13.371,16.988 4.283,27.551 6.284,5.801 7.601,15.822 0.012,24.642"
         style="fill:#31313d;fill-opacity:1;fill-rule:nonzero;stroke:none"
         id="path4304"
         inkscape:connector-curvature="0" />
    </g>
    <g
       id="g4306"
       transform="matrix(1.25,0,0,-1.25,1661.9442,-213.52924)">
      <path
         d="m 0,0 c -15.833,10.587 -19.284,25.667 -19.838,28.739 l -0.026,7.121 c 2.863,-4.538 7.946,-9.907 17.162,-16.801 C 9.253,10.116 7.76,0.94 5.312,-4.322 3.817,-2.827 2.058,-1.376 0,0 M 0.116,24.643 C -17.53,36.442 -19.698,53.831 -19.698,53.945 l 0,0.199 -5.833,0 0.427,-89.836 c -4.106,3.909 -10.132,6.381 -16.854,6.381 -12.374,0 -22.403,-8.361 -22.403,-18.676 0,-10.314 10.029,-18.475 22.403,-18.475 12.263,0 22.22,7.606 22.394,18.606 l -0.134,0 0,-0.16 0,0.029 0,0.037 -0.146,59.023 c 2.88,-4.508 7.99,-9.836 17.107,-16.656 18.242,-13.647 5.191,-27.834 5.191,-27.834 9.699,4.693 13.427,16.987 4.338,27.55 7.739,7.146 8.002,20.696 -6.676,30.51"
         style="fill:#31313d;fill-opacity:1;fill-rule:nonzero;stroke:none"
         id="path4308"
         inkscape:connector-curvature="0" />
    </g>
    <g
       id="g4310"
       transform="matrix(1.25,0,0,-1.25,1628.2418,-8.9514929)">
      <path
         d="m 0,0 c -9.044,0 -16.402,5.686 -16.402,12.675 0,6.99 7.358,12.677 16.402,12.677 9.044,0 16.401,-5.687 16.401,-12.677 C 16.401,5.686 9.044,0 0,0 M 21.264,18.551 C 18.31,25.986 9.909,31.352 0,31.352 c -9.371,0 -17.393,-4.799 -20.736,-11.607 l 0,16.061 -3,0 0,-45 3,0 0,14.8 C -17.393,-1.202 -9.371,-6 0,-6 9.909,-6 18.31,-0.634 21.264,6.8 l 0,-15.994 3,0 0,45 -3,0 0,-17.255 z"
         style="fill:#31313d;fill-opacity:1;fill-rule:nonzero;stroke:none"
         id="path4312"
         inkscape:connector-curvature="0" />
    </g>
    <path
       d="m 1662.3214,2.5407571 3.75,0 0,-56.2500001 -3.75,0 0,56.2500001 z"
       style="fill:#31313d;fill-opacity:1;fill-rule:nonzero;stroke:none"
       id="path4314"
       inkscape:connector-curvature="0" />
    <path
       d="m 1591.0714,2.5407571 3.75,0 0,-56.2500001 -3.75,0 0,56.2500001 z"
       style="fill:#31313d;fill-opacity:1;fill-rule:nonzero;stroke:none"
       id="path4316"
       inkscape:connector-curvature="0" />
    <path
       d="m 1329.8214,-16.209243 -20,0 0,-18.75 20,0 0,18.75 z m 26.25,-18.75 0,-7.5 -18.75,0 0,-22.5 -7.5,0 0,22.5 -20,0 0,-16.25 -7.5,0 0,16.25 -18.75,0 0,7.5 18.75,0 0,18.75 -18.75,0 0,7.5000001 18.75,0 0,22.4999999 7.5,0 0,-22.4999999 20,0 0,16.25 7.5,0 0,-16.25 18.75,0 0,-7.5000001 -18.75,0 0,-18.75 18.75,0 z"
       style="fill:#31313d;fill-opacity:1;fill-rule:nonzero;stroke:none"
       id="path4318"
       inkscape:connector-curvature="0" />
    <g
       id="g4320"
       transform="matrix(1.25,0,0,-1.25,1488.4366,-67.810243)">
      <path
         d="m 0,0 c -3.542,4.373 -8.154,7.618 -12.86,9.549 -0.588,0.247 -1.173,0.484 -1.768,0.677 l -0.883,0.304 -0.516,0.171 -0.397,0.112 -0.811,0.228 -0.968,0.237 c -0.645,0.156 -1.227,0.248 -1.839,0.349 -2.428,0.357 -4.819,0.406 -7.072,0.156 -4.521,-0.477 -8.398,-2.03 -11.451,-3.809 -3.062,-1.813 -5.24,-4.012 -6.721,-5.988 -1.494,-1.981 -2.297,-3.764 -2.775,-4.99 -0.235,-0.618 -0.385,-1.102 -0.469,-1.44 -0.03,-0.103 -0.052,-0.186 -0.071,-0.26 -0.662,-1.432 -1.052,-3.019 -1.09,-4.697 -0.148,-6.543 5.035,-11.969 11.578,-12.117 6.543,-0.148 11.967,5.037 12.116,11.579 0.141,6.209 -4.524,11.403 -10.592,12.044 0.3,0.146 0.589,0.294 0.9,0.437 2.586,1.224 5.689,2.131 9.06,2.187 3.367,0.077 6.945,-0.758 10.504,-2.51 3.556,-1.712 6.846,-4.256 9.49,-7.579 1.31,-1.668 2.482,-3.507 3.45,-5.503 0.946,-2.006 1.729,-4.143 2.304,-6.378 1.152,-4.473 1.4,-9.312 0.875,-14.092 -0.261,-2.405 -0.718,-4.759 -1.367,-7.067 -0.682,-2.376 -1.483,-4.539 -2.58,-6.651 -1.069,-2.098 -2.302,-4.108 -3.713,-5.971 -1.411,-1.864 -3.009,-3.561 -4.694,-5.124 -3.387,-3.104 -7.164,-5.652 -11.042,-7.528 -3.867,-1.908 -7.793,-3.222 -11.509,-4.101 -3.727,-0.836 -7.243,-1.266 -10.383,-1.379 -3.14,-0.104 -5.901,0.034 -8.169,0.283 -2.264,0.29 -4.037,0.576 -5.246,0.846 -1.207,0.274 -1.85,0.42 -1.85,0.42 0,0 0.61,-0.25 1.755,-0.719 1.147,-0.449 2.874,-1.086 5.125,-1.693 2.258,-0.574 5.053,-1.167 8.322,-1.446 3.264,-0.287 7.004,-0.345 11.057,0.149 4.038,0.519 8.433,1.419 12.842,3.168 2.216,0.84 4.437,1.873 6.626,3.1 1.109,0.592 2.176,1.285 3.266,1.971 1.054,0.739 2.122,1.486 3.141,2.322 4.12,3.275 7.872,7.436 10.697,12.332 1.419,2.418 2.566,5.124 3.463,7.739 0.914,2.691 1.612,5.487 2.062,8.293 0.906,5.639 0.73,11.487 -0.505,17.091 C 6.079,-9.693 3.581,-4.339 0,0"
         style="fill:#31313d;fill-opacity:1;fill-rule:nonzero;stroke:none"
         id="path4322"
         inkscape:connector-curvature="0" />
    </g>
    <g
       id="g4324"
       transform="matrix(1.25,0,0,-1.25,1514.0176,-34.849373)">
      <path
         d="m 0,0 c 4.063,0 7.357,3.294 7.357,7.357 0,4.063 -3.294,7.357 -7.357,7.357 -4.063,0 -7.357,-3.294 -7.357,-7.357 C -7.357,3.294 -4.063,0 0,0"
         style="fill:#31313d;fill-opacity:1;fill-rule:nonzero;stroke:none"
         id="path4326"
         inkscape:connector-curvature="0" />
    </g>
    <g
       id="g4328"
       transform="matrix(1.25,0,0,-1.25,1514.0176,-23.241743)">
      <path
         d="m 0,0 c -4.063,0 -7.357,-3.294 -7.357,-7.357 0,-4.063 3.294,-7.357 7.357,-7.357 4.063,0 7.357,3.294 7.357,7.357 C 7.357,-3.294 4.063,0 0,0"
         style="fill:#31313d;fill-opacity:1;fill-rule:nonzero;stroke:none"
         id="path4330"
         inkscape:connector-curvature="0" />
    </g>
    <g
       id="g4332"
       transform="matrix(1.25,0,0,-1.25,1369.5182,247.14547)">
      <path
         d="m 0,0 c -0.115,-6.769 -3.347,-14.524 -9.618,-20.035 -3.314,-2.996 -7.424,-5.322 -11.937,-6.793 -1.786,13.217 -3.691,27.15 -5.396,41.713 -0.541,4.695 -1.07,9.457 -1.58,14.277 0.028,0.003 0.051,0.007 0.079,0.01 0.569,0.06 1.13,0.167 1.708,0.169 2.293,0.147 4.652,-0.222 7.045,-0.984 4.748,-1.61 9.611,-5.138 13.388,-10.111 1.874,-2.486 3.496,-5.304 4.63,-8.365 0.571,-1.531 1.025,-3.119 1.306,-4.748 0.173,-0.817 0.23,-1.641 0.32,-2.473 L -0.014,2.035 0.008,1.721 0.019,1.563 C 0.008,1.334 0.049,1.702 0.042,1.588 L 0,0 Z m -33.932,-28.582 c -2.293,0.072 -4.6,0.332 -6.88,0.815 -2.29,0.433 -4.542,1.128 -6.746,1.972 l -1.651,0.647 -1.618,0.746 -0.806,0.38 -0.737,0.405 -1.651,0.91 c -1.875,1.199 -3.809,2.539 -5.458,4.195 -1.662,1.619 -3.183,3.392 -4.375,5.384 -1.216,1.968 -2.268,4.044 -2.993,6.259 -0.759,2.195 -1.261,4.488 -1.496,6.827 -0.176,1.154 -0.164,2.35 -0.24,3.517 0.04,1.189 -0.009,2.363 0.128,3.552 0.727,9.518 4.694,18.794 10.157,27.086 2.754,4.158 5.933,8.086 9.385,11.813 1.728,1.862 3.523,3.681 5.407,5.423 2.003,1.885 4.011,3.774 6.023,5.668 0.254,0.246 0.505,0.495 0.758,0.741 0.54,-5.58 1.127,-11.091 1.761,-16.535 -0.164,-0.071 -0.319,-0.141 -0.497,-0.214 l -1.312,-0.562 c -0.817,-0.418 -1.634,-0.795 -2.413,-1.244 -6.256,-3.578 -10.84,-8.775 -13.314,-14.052 -2.549,-5.272 -3.236,-10.483 -2.939,-14.835 0.328,-4.374 1.651,-7.945 3.309,-10.41 1.612,-2.511 3.496,-3.84 4.767,-4.535 0.323,-0.166 0.607,-0.311 0.851,-0.435 0.251,-0.09 0.461,-0.165 0.629,-0.223 0.338,-0.119 0.509,-0.18 0.509,-0.18 0,0 -0.124,0.133 -0.366,0.396 -0.25,0.255 -0.615,0.661 -0.996,1.192 -0.773,1.078 -1.736,2.811 -2.218,5.182 -0.5,2.353 -0.559,5.345 0.209,8.635 0.728,3.283 2.305,6.853 4.818,10.082 2.534,3.214 6.04,6.007 10.448,7.755 0.06,0.028 0.125,0.048 0.187,0.073 0.615,-4.575 1.265,-9.098 1.958,-13.553 1.452,-9.607 3.033,-18.92 4.58,-27.914 0.772,-4.496 1.531,-8.915 2.276,-13.252 0.041,-0.252 0.079,-0.496 0.119,-0.748 -3.086,-0.735 -6.313,-1.081 -9.573,-0.963 m 0.314,136.05 c 0.014,5.4 0.143,10.823 0.449,16.239 0.297,5.411 0.804,10.831 1.732,16.099 0.464,2.628 1.027,5.225 1.777,7.666 0.736,2.399 1.739,4.794 2.877,6.182 0.376,0.474 0.714,0.696 0.874,0.77 l 0.204,0.005 c -0.291,-0.008 -0.048,-0.016 -0.098,-0.022 0.065,-0.006 0.16,-0.036 0.269,-0.072 0.221,-0.08 0.51,-0.196 0.839,-0.414 1.361,-0.814 2.859,-2.657 3.979,-4.687 2.282,-4.161 3.512,-9.228 4.098,-14.301 0.567,-5.103 0.47,-10.352 0.071,-15.53 l -0.17,-1.882 -0.241,-2.102 c -0.172,-1.153 -0.359,-2.468 -0.59,-3.659 -0.496,-2.414 -1.127,-4.734 -1.998,-6.952 -1.687,-4.444 -4.313,-8.604 -7.413,-12.683 -1.887,-2.429 -3.923,-4.83 -6.036,-7.215 -0.361,7.453 -0.606,14.978 -0.623,22.558 m 7.65,47.518 0.033,0 -0.033,0 z m 0.153,-0.542 c 0.034,0.004 -0.028,-0.007 -0.087,-0.015 0.071,0.031 0.116,0.043 0.087,0.015 M 10.912,13.454 c -0.536,2.362 -1.266,4.653 -2.23,6.802 -0.941,2.158 -2.018,4.233 -3.312,6.135 -5.04,7.666 -12.502,13.419 -20.949,15.761 -2.099,0.588 -4.246,0.965 -6.379,1.115 -2.139,0.096 -4.259,0.062 -6.301,-0.262 -0.553,-0.066 -1.095,-0.161 -1.633,-0.272 -0.627,6.597 -1.202,13.296 -1.715,20.08 6.092,6.152 11.974,12.685 17.195,20.375 3.386,5.065 6.54,10.724 8.423,16.994 0.973,3.109 1.606,6.302 2.021,9.452 0.194,1.594 0.311,3.087 0.425,4.737 l 0.089,2.115 0.045,2.344 c 0.051,6.087 -0.61,12.177 -2.091,18.162 -1.484,5.971 -3.69,11.853 -7.419,17.224 -0.941,1.342 -1.987,2.648 -3.223,3.877 -1.235,1.227 -2.637,2.416 -4.442,3.36 -0.89,0.475 -1.92,0.87 -3.059,1.117 -0.576,0.119 -1.171,0.202 -1.808,0.212 -0.225,0.003 -0.157,0.018 -0.622,0.006 l -0.262,-0.018 c -0.262,-0.018 -0.917,-0.094 -1.191,-0.172 -1.405,-0.306 -2.598,-0.971 -3.516,-1.692 -0.929,-0.727 -1.626,-1.516 -2.203,-2.291 -2.211,-3.122 -3.086,-6.104 -3.898,-9.032 -0.756,-2.927 -1.239,-5.805 -1.617,-8.664 -1.367,-11.422 -1.433,-22.546 -1.161,-33.525 0.216,-9.648 0.728,-19.148 1.403,-28.501 -3.319,-3.509 -6.739,-6.99 -10.111,-10.457 -1.95,-1.997 -3.887,-3.893 -5.854,-5.963 -2.056,-2.138 -4.039,-4.345 -5.902,-6.651 -3.736,-4.605 -7.011,-9.58 -9.738,-14.827 -2.758,-5.228 -4.902,-10.776 -6.278,-16.507 -1.402,-5.716 -2.033,-11.621 -1.652,-17.464 0.048,-1.456 0.275,-2.913 0.435,-4.354 0.274,-1.44 0.47,-2.874 0.868,-4.281 0.659,-2.829 1.706,-5.555 2.92,-8.159 2.425,-5.228 6.117,-9.746 10.4,-13.24 l 1.633,-1.275 1.709,-1.147 c 1.093,-0.781 2.41,-1.44 3.587,-2.119 l 1.703,-0.808 0.942,-0.444 0.917,-0.367 1.821,-0.742 1.853,-0.649 c 4.946,-1.679 10.088,-2.616 15.188,-2.769 3.539,-0.113 7.06,0.16 10.504,0.767 0.373,-2.385 0.734,-4.751 1.071,-7.084 0.625,-4.172 1.077,-8.275 1.435,-12.278 0.338,-4.004 0.568,-7.918 0.44,-11.702 -0.061,-1.891 -0.194,-3.746 -0.454,-5.544 -0.067,-0.432 -0.118,-0.939 -0.199,-1.303 l -0.282,-1.365 c -0.232,-0.827 -0.435,-1.623 -0.75,-2.435 -1.149,-3.236 -3.039,-6.056 -5.342,-8.226 -2.332,-2.142 -5.056,-3.631 -7.871,-4.354 l -1.06,-0.231 -0.263,-0.059 c -0.025,-0.004 -0.127,-0.028 -0.09,-0.018 l -0.147,-0.022 -0.586,-0.088 c -0.713,-0.093 -1.365,-0.142 -2.085,-0.159 -1.395,-0.022 -2.763,0.07 -4.057,0.352 -1.291,0.284 -2.512,0.697 -3.63,1.22 -1.107,0.557 -2.093,1.234 -2.954,1.973 -1.702,1.521 -2.826,3.343 -3.361,5.193 -0.294,0.915 -0.41,1.853 -0.455,2.757 -0.032,0.448 -0.023,0.902 0.002,1.341 l 0.061,0.658 c 0.025,-0.189 0.009,0.008 0.016,-0.006 l 0.005,0.104 0.01,0.211 0.02,0.417 c 0.12,0.628 0.264,1.523 0.518,2.199 0.242,0.709 0.534,1.358 0.852,1.934 0.417,0.736 0.885,1.312 1.358,1.772 1.783,-1.298 3.972,-2.072 6.346,-2.072 5.968,0 10.807,4.838 10.807,10.807 0,5.968 -4.739,11.005 -10.706,11.117 -4.254,0.08 -8.621,-1.128 -12.648,-5.334 -3.22,-3.363 -5.767,-8.16 -6.41,-13.252 -0.18,-1.273 -0.257,-2.586 -0.22,-3.925 0.052,-1.374 0.155,-2.614 0.438,-4.179 0.558,-2.509 1.653,-5.41 3.315,-7.943 1.678,-2.559 3.993,-4.843 6.757,-6.462 1.366,-0.829 2.841,-1.507 4.39,-1.993 1.535,-0.521 3.143,-0.877 4.789,-1.057 1.645,-0.181 3.328,-0.211 5.022,-0.05 0.824,0.076 1.724,0.212 2.566,0.388 l 0.578,0.129 0.344,0.083 0.315,0.089 1.265,0.359 c 1.664,0.575 3.31,1.295 4.857,2.246 1.536,0.965 2.981,2.114 4.29,3.43 2.563,2.683 4.605,5.987 5.779,9.685 0.315,0.903 0.541,1.898 0.766,2.865 l 0.235,1.375 c 0.102,0.551 0.126,0.979 0.194,1.477 0.231,1.925 0.324,3.874 0.342,5.837 0.1,7.863 -0.887,15.97 -1.926,24.389 -0.317,2.404 -0.642,4.844 -0.972,7.301 5.483,1.285 10.712,3.461 15.364,6.572 4.128,2.778 7.828,6.254 10.701,10.366 1.464,2.038 2.672,4.256 3.668,6.556 0.514,1.148 0.927,2.33 1.313,3.523 0.211,0.573 0.353,1.274 0.526,1.911 0.162,0.646 0.338,1.35 0.419,1.814 l 0.313,1.558 0.242,2.07 c 0.114,1.257 0.179,2.523 0.13,3.767 -0.034,2.5 -0.345,4.957 -0.906,7.313"
         style="fill:#31313d;fill-opacity:1;fill-rule:nonzero;stroke:none"
         id="path4334"
         inkscape:connector-curvature="0" />
    </g>
    <g
       id="g4336"
       transform="matrix(1.25,0,0,-1.25,1722.9073,-83.883743)">
      <path
         d="m 0,0 19.362,-29.826 c 0,0 -9.943,-4.71 -8.896,-15.699 1.048,-10.989 18.315,-31.397 18.315,-31.397 0,0 -15.176,8.373 -19.885,3.663 -4.709,-4.709 6.803,-20.407 6.803,-20.407 0,0 -10.99,11.512 -14.652,21.978 -3.662,10.464 0.524,14.652 7.326,11.512 l -15.176,23.547 c 0,0 5.756,-2.616 12.559,4.71 C 12.559,-24.594 0,0 0,0"
         style="fill:#31313d;fill-opacity:1;fill-rule:nonzero;stroke:none"
         id="path4338"
         inkscape:connector-curvature="0" />
    </g>
    <g
       id="g4340"
       transform="matrix(1.25,0,0,-1.25,1446.4286,76.290757)">
      <path
         d="M 0,0 553,0"
         style="fill:none;stroke:#31313d;stroke-width:4;stroke-linecap:butt;stroke-linejoin:miter;stroke-miterlimit:10;stroke-dasharray:none;stroke-opacity:1"
         id="path4342"
         inkscape:connector-curvature="0" />
    </g>
    <g
       id="g4344"
       transform="matrix(1.25,0,0,-1.25,1446.4286,121.29076)">
      <path
         d="M 0,0 553,0"
         style="fill:none;stroke:#31313d;stroke-width:4;stroke-linecap:butt;stroke-linejoin:miter;stroke-miterlimit:10;stroke-dasharray:none;stroke-opacity:1"
         id="path4346"
         inkscape:connector-curvature="0" />
    </g>
    <g
       id="g4348"
       transform="matrix(1.25,0,0,-1.25,1446.4286,166.29076)">
      <path
         d="M 0,0 553,0"
         style="fill:none;stroke:#31313d;stroke-width:4;stroke-linecap:butt;stroke-linejoin:miter;stroke-miterlimit:10;stroke-dasharray:none;stroke-opacity:1"
         id="path4350"
         inkscape:connector-curvature="0" />
    </g>
    <g
       id="g4352"
       transform="matrix(1.25,0,0,-1.25,1446.4286,211.29076)">
      <path
         d="M 0,0 553,0"
         style="fill:none;stroke:#31313d;stroke-width:4;stroke-linecap:butt;stroke-linejoin:miter;stroke-miterlimit:10;stroke-dasharray:none;stroke-opacity:1"
         id="path4354"
         inkscape:connector-curvature="0" />
    </g>
    <g
       id="g4356"
       transform="matrix(1.25,0,0,-1.25,1446.4286,256.29076)">
      <path
         d="M 0,0 553,0"
         style="fill:none;stroke:#31313d;stroke-width:4;stroke-linecap:butt;stroke-linejoin:miter;stroke-miterlimit:10;stroke-dasharray:none;stroke-opacity:1"
         id="path4358"
         inkscape:connector-curvature="0" />
    </g>
    <g
       id="g4360"
       transform="matrix(1.25,0,0,-1.25,1864,-57.323743)">
      <path
         d="m 0,0 c -0.075,-0.077 -6.064,-6.148 -15.862,-9.607 0.363,1.094 0.566,2.26 0.566,3.475 0,6.101 -4.945,11.047 -11.047,11.047 -6.101,0 -11.047,-4.946 -11.047,-11.047 0,-0.421 0.029,-0.835 0.075,-1.243 0.002,-1.674 0.372,-3.336 1.138,-4.834 1.005,-1.969 4.237,-6.428 12.509,-5.401 8.431,1.054 15.317,4.301 20.15,7.34 l -15.358,-49.594 5.732,-1.775 L 8.744,9.045 0,0 Z"
         style="fill:#31313d;fill-opacity:1;fill-rule:nonzero;stroke:none"
         id="path4362"
         inkscape:connector-curvature="0" />
    </g>
    <g
       id="g4364"
       transform="matrix(1.25,0,0,-1.25,1974.8215,466.47513)">
      <path
         d="m 0,0 0,0.029 c 0,0.013 -0.001,0.026 -0.001,0.038 l -0.373,102.08 -0.005,0 -0.006,1.666 -78.67,-9.784 0.134,-12.225 0.374,-78.48 c -4.106,3.909 -10.133,6.381 -16.855,6.381 -12.373,0 -22.403,-8.361 -22.403,-18.676 0,-10.314 10.03,-18.479 22.403,-18.479 12.262,0 22.216,7.597 22.393,18.597 l 0.009,0 0,-0.147 0,0.029 c 0,0.013 -0.001,0.026 -0.001,0.038 l -0.334,91.398 67.412,8.775 0.376,-78.916 c -4.106,3.909 -10.133,6.381 -16.855,6.381 -12.373,0 -22.403,-8.361 -22.403,-18.676 0,-10.314 10.03,-18.479 22.403,-18.479 12.262,0 22.216,7.597 22.393,18.597 L 0,0.147 0,0 Z"
         style="fill:#31313d;fill-opacity:1;fill-rule:nonzero;stroke:none"
         id="path4366"
         inkscape:connector-curvature="0" />
    </g>
    <g
       id="g4368"
       transform="matrix(1.25,0,0,-1.25,1495.5686,336.91326)">
      <path
         d="m 0,0 c -12.237,0 -22.175,-8.502 -22.392,-18.502 l -0.206,0 0,0.026 0,-0.036 c 0,-0.015 0.099,-0.031 0.099,-0.047 l 0.383,-91.388 -67.387,-8.776 -0.364,78.915 c 4.106,-3.908 10.138,-6.38 16.861,-6.38 12.373,0 22.405,8.362 22.405,18.676 0,10.315 -10.027,18.512 -22.4,18.512 -12.237,0 -22.174,-8.502 -22.391,-18.502 l -0.206,0 0,0.026 0,-0.036 c 0,-0.015 0.099,-0.031 0.099,-0.047 l 0.471,-101.943 0.004,0 0.006,-1.794 78.67,9.784 -0.132,12.13 -0.374,78.574 c 4.105,-3.908 10.131,-6.38 16.854,-6.38 12.373,0 22.402,8.28 22.402,18.594 C 22.402,-8.279 12.373,0 0,0"
         style="fill:#31313d;fill-opacity:1;fill-rule:nonzero;stroke:none"
         id="path4370"
         inkscape:connector-curvature="0" />
    </g>
    <g
       id="g4372"
       transform="matrix(1.25,0,0,-1.25,1566.9442,370.18963)">
      <path
         d="M 0,0 -0.018,5.429 67.396,14.181 67.419,9.207 0,0 Z m 73.302,-77.068 0,0.035 0,0.045 -0.352,102.107 -0.004,0 -0.006,1.74 -78.673,-9.81 0.128,-12.107 0.347,-78.637 c -4.105,3.91 -10.13,6.377 -16.853,6.379 -12.373,0.004 -22.405,-8.357 -22.409,-18.671 -0.003,-10.315 10.023,-18.436 22.396,-18.441 12.227,-0.004 22.16,7.547 22.398,18.547 l 0.028,0 0,-0.176 c 0,0.017 -0.008,0.034 -0.008,0.05 0,0.022 -0.006,0.042 -0.006,0.064 l -0.266,79.889 67.424,9.208 0.299,-67.889 c -4.104,3.91 -10.13,6.383 -16.852,6.386 -12.373,0.004 -22.406,-8.353 -22.41,-18.668 -0.003,-10.314 10.023,-18.921 22.396,-18.924 12.226,-0.006 22.16,8.06 22.397,18.06 l 0.026,0 0,0.813 z"
         style="fill:#31313d;fill-opacity:1;fill-rule:nonzero;stroke:none"
         id="path4374"
         inkscape:connector-curvature="0" />
    </g>
    <g
       id="g4376"
       transform="matrix(1.25,0,0,-1.25,1787.9599,467.57739)">
      <path
         d="m 0,0 0.021,-5.429 -67.413,-8.775 -0.024,4.973 L 0,0 Z m 22.087,104.521 c -12.234,0 -22.17,-8.492 -22.392,-18.492 l -0.206,0 0,0.015 0,-0.037 c 0,-0.016 0.099,-0.031 0.1,-0.047 L -0.07,6.054 -67.469,-3.179 -67.78,64.711 c 4.107,-3.908 10.138,-6.38 16.861,-6.38 12.373,0 22.405,8.361 22.405,18.676 0,10.314 -10.028,18.514 -22.401,18.514 -12.234,0 -22.168,-8.492 -22.39,-18.492 l -0.206,0 0,0.015 0,-0.037 c 0,-0.016 0.099,-0.031 0.1,-0.047 l 0.47,-101.931 0.003,0 0.007,-1.806 78.67,9.784 -0.133,12.121 -0.374,78.583 c 4.107,-3.908 10.132,-6.38 16.855,-6.38 12.373,0 22.402,8.28 22.402,18.595 0,10.314 -10.029,18.595 -22.402,18.595"
         style="fill:#31313d;fill-opacity:1;fill-rule:nonzero;stroke:none"
         id="path4378"
         inkscape:connector-curvature="0" />
    </g>
    <rect
       y="-313.35208"
       x="-234.28572"
       height="200"
       width="1088.5714"
       id="rect4839"
       style="opacity:0.756;fill:#008000;fill-opacity:0.62745098;stroke:none;stroke-width:5;stroke-linejoin:round;stroke-miterlimit:4;stroke-dasharray:none;stroke-opacity:1" />
    <g
       id="g4853"
       style="fill:#0000ff">
      <rect
         y="852.36218"
         x="0"
         height="200"
         width="1000"
         id="rect4136"
         style="opacity:0.756;fill:#0000ff;fill-opacity:0.62745098;stroke:none;stroke-width:5;stroke-linejoin:round;stroke-miterlimit:4;stroke-dasharray:none;stroke-opacity:1" />
      <rect
         transform="matrix(0.74393338,-0.66825378,0.68553118,0.72804327,0,0)"
         y="387.27435"
         x="-692.88086"
         height="347.48099"
         width="386.3786"
         id="rect4841"
         style="opacity:0.456;fill:#0000ff;fill-opacity:0.62745098;stroke:none;stroke-width:5;stroke-linejoin:round;stroke-miterlimit:4;stroke-dasharray:none;stroke-opacity:1" />
      <rect
         style="opacity:0.456;fill:#0000ff;fill-opacity:0.62745098;stroke:none;stroke-width:5;stroke-linejoin:round;stroke-miterlimit:4;stroke-dasharray:none;stroke-opacity:1"
         id="rect4843"
         width="386.3786"
         height="347.48099"
         x="-977.05591"
         y="558.12225"
         transform="matrix(0.74393338,-0.66825378,0.68553118,0.72804327,0,0)" />
      <rect
         transform="matrix(0.74393338,-0.66825378,0.68553118,0.72804327,0,0)"
         y="865.85248"
         x="-457.94159"
         height="347.48099"
         width="386.3786"
         id="rect4845"
         style="opacity:0.456;fill:#0000ff;fill-opacity:0.62745098;stroke:none;stroke-width:5;stroke-linejoin:round;stroke-miterlimit:4;stroke-dasharray:none;stroke-opacity:1" />
      <rect
         style="opacity:0.456;fill:#0000ff;fill-opacity:0.62745098;stroke:none;stroke-width:5;stroke-linejoin:round;stroke-miterlimit:4;stroke-dasharray:none;stroke-opacity:1"
         id="rect4847"
         width="386.3786"
         height="347.48099"
         x="-456.21747"
         y="553.48193"
         transform="matrix(0.74393338,-0.66825378,0.68553118,0.72804327,0,0)" />
      <rect
         transform="matrix(0.74393338,-0.66825378,0.68553118,0.72804327,0,0)"
         y="1005.6838"
         x="-294.91171"
         height="347.48099"
         width="386.3786"
         id="rect4849"
         style="opacity:0.456;fill:#0000ff;fill-opacity:0.62745098;stroke:none;stroke-width:5;stroke-linejoin:round;stroke-miterlimit:4;stroke-dasharray:none;stroke-opacity:1" />
      <rect
         style="opacity:0.456;fill:#0000ff;fill-opacity:0.62745098;stroke:none;stroke-width:5;stroke-linejoin:round;stroke-miterlimit:4;stroke-dasharray:none;stroke-opacity:1"
         id="rect4851"
         width="386.3786"
         height="347.48099"
         x="-273.93011"
         y="1064.1859"
         transform="matrix(0.74393338,-0.66825378,0.68553118,0.72804327,0,0)" />
    </g>
    <g
       transform="matrix(3.1707421,0,0,-3.1707421,255.42693,961.99337)"
       id="g4863"
       style="opacity:0.76700003;fill:#0000ff">
      <path
         inkscape:connector-curvature="0"
         id="path4865"
         style="fill:#0000ff;fill-opacity:1;fill-rule:nonzero;stroke:none"
         d="m 0,0 c -0.115,-6.769 -3.347,-14.524 -9.618,-20.035 -3.314,-2.996 -7.424,-5.322 -11.937,-6.793 -1.786,13.217 -3.691,27.15 -5.396,41.713 -0.541,4.695 -1.07,9.457 -1.58,14.277 0.028,0.003 0.051,0.007 0.079,0.01 0.569,0.06 1.13,0.167 1.708,0.169 2.293,0.147 4.652,-0.222 7.045,-0.984 4.748,-1.61 9.611,-5.138 13.388,-10.111 1.874,-2.486 3.496,-5.304 4.63,-8.365 0.571,-1.531 1.025,-3.119 1.306,-4.748 0.173,-0.817 0.23,-1.641 0.32,-2.473 L -0.014,2.035 0.008,1.721 0.019,1.563 C 0.008,1.334 0.049,1.702 0.042,1.588 L 0,0 Z m -33.932,-28.582 c -2.293,0.072 -4.6,0.332 -6.88,0.815 -2.29,0.433 -4.542,1.128 -6.746,1.972 l -1.651,0.647 -1.618,0.746 -0.806,0.38 -0.737,0.405 -1.651,0.91 c -1.875,1.199 -3.809,2.539 -5.458,4.195 -1.662,1.619 -3.183,3.392 -4.375,5.384 -1.216,1.968 -2.268,4.044 -2.993,6.259 -0.759,2.195 -1.261,4.488 -1.496,6.827 -0.176,1.154 -0.164,2.35 -0.24,3.517 0.04,1.189 -0.009,2.363 0.128,3.552 0.727,9.518 4.694,18.794 10.157,27.086 2.754,4.158 5.933,8.086 9.385,11.813 1.728,1.862 3.523,3.681 5.407,5.423 2.003,1.885 4.011,3.774 6.023,5.668 0.254,0.246 0.505,0.495 0.758,0.741 0.54,-5.58 1.127,-11.091 1.761,-16.535 -0.164,-0.071 -0.319,-0.141 -0.497,-0.214 l -1.312,-0.562 c -0.817,-0.418 -1.634,-0.795 -2.413,-1.244 -6.256,-3.578 -10.84,-8.775 -13.314,-14.052 -2.549,-5.272 -3.236,-10.483 -2.939,-14.835 0.328,-4.374 1.651,-7.945 3.309,-10.41 1.612,-2.511 3.496,-3.84 4.767,-4.535 0.323,-0.166 0.607,-0.311 0.851,-0.435 0.251,-0.09 0.461,-0.165 0.629,-0.223 0.338,-0.119 0.509,-0.18 0.509,-0.18 0,0 -0.124,0.133 -0.366,0.396 -0.25,0.255 -0.615,0.661 -0.996,1.192 -0.773,1.078 -1.736,2.811 -2.218,5.182 -0.5,2.353 -0.559,5.345 0.209,8.635 0.728,3.283 2.305,6.853 4.818,10.082 2.534,3.214 6.04,6.007 10.448,7.755 0.06,0.028 0.125,0.048 0.187,0.073 0.615,-4.575 1.265,-9.098 1.958,-13.553 1.452,-9.607 3.033,-18.92 4.58,-27.914 0.772,-4.496 1.531,-8.915 2.276,-13.252 0.041,-0.252 0.079,-0.496 0.119,-0.748 -3.086,-0.735 -6.313,-1.081 -9.573,-0.963 m 0.314,136.05 c 0.014,5.4 0.143,10.823 0.449,16.239 0.297,5.411 0.804,10.831 1.732,16.099 0.464,2.628 1.027,5.225 1.777,7.666 0.736,2.399 1.739,4.794 2.877,6.182 0.376,0.474 0.714,0.696 0.874,0.77 l 0.204,0.005 c -0.291,-0.008 -0.048,-0.016 -0.098,-0.022 0.065,-0.006 0.16,-0.036 0.269,-0.072 0.221,-0.08 0.51,-0.196 0.839,-0.414 1.361,-0.814 2.859,-2.657 3.979,-4.687 2.282,-4.161 3.512,-9.228 4.098,-14.301 0.567,-5.103 0.47,-10.352 0.071,-15.53 l -0.17,-1.882 -0.241,-2.102 c -0.172,-1.153 -0.359,-2.468 -0.59,-3.659 -0.496,-2.414 -1.127,-4.734 -1.998,-6.952 -1.687,-4.444 -4.313,-8.604 -7.413,-12.683 -1.887,-2.429 -3.923,-4.83 -6.036,-7.215 -0.361,7.453 -0.606,14.978 -0.623,22.558 m 7.65,47.518 0.033,0 -0.033,0 z m 0.153,-0.542 c 0.034,0.004 -0.028,-0.007 -0.087,-0.015 0.071,0.031 0.116,0.043 0.087,0.015 M 10.912,13.454 c -0.536,2.362 -1.266,4.653 -2.23,6.802 -0.941,2.158 -2.018,4.233 -3.312,6.135 -5.04,7.666 -12.502,13.419 -20.949,15.761 -2.099,0.588 -4.246,0.965 -6.379,1.115 -2.139,0.096 -4.259,0.062 -6.301,-0.262 -0.553,-0.066 -1.095,-0.161 -1.633,-0.272 -0.627,6.597 -1.202,13.296 -1.715,20.08 6.092,6.152 11.974,12.685 17.195,20.375 3.386,5.065 6.54,10.724 8.423,16.994 0.973,3.109 1.606,6.302 2.021,9.452 0.194,1.594 0.311,3.087 0.425,4.737 l 0.089,2.115 0.045,2.344 c 0.051,6.087 -0.61,12.177 -2.091,18.162 -1.484,5.971 -3.69,11.853 -7.419,17.224 -0.941,1.342 -1.987,2.648 -3.223,3.877 -1.235,1.227 -2.637,2.416 -4.442,3.36 -0.89,0.475 -1.92,0.87 -3.059,1.117 -0.576,0.119 -1.171,0.202 -1.808,0.212 -0.225,0.003 -0.157,0.018 -0.622,0.006 l -0.262,-0.018 c -0.262,-0.018 -0.917,-0.094 -1.191,-0.172 -1.405,-0.306 -2.598,-0.971 -3.516,-1.692 -0.929,-0.727 -1.626,-1.516 -2.203,-2.291 -2.211,-3.122 -3.086,-6.104 -3.898,-9.032 -0.756,-2.927 -1.239,-5.805 -1.617,-8.664 -1.367,-11.422 -1.433,-22.546 -1.161,-33.525 0.216,-9.648 0.728,-19.148 1.403,-28.501 -3.319,-3.509 -6.739,-6.99 -10.111,-10.457 -1.95,-1.997 -3.887,-3.893 -5.854,-5.963 -2.056,-2.138 -4.039,-4.345 -5.902,-6.651 -3.736,-4.605 -7.011,-9.58 -9.738,-14.827 -2.758,-5.228 -4.902,-10.776 -6.278,-16.507 -1.402,-5.716 -2.033,-11.621 -1.652,-17.464 0.048,-1.456 0.275,-2.913 0.435,-4.354 0.274,-1.44 0.47,-2.874 0.868,-4.281 0.659,-2.829 1.706,-5.555 2.92,-8.159 2.425,-5.228 6.117,-9.746 10.4,-13.24 l 1.633,-1.275 1.709,-1.147 c 1.093,-0.781 2.41,-1.44 3.587,-2.119 l 1.703,-0.808 0.942,-0.444 0.917,-0.367 1.821,-0.742 1.853,-0.649 c 4.946,-1.679 10.088,-2.616 15.188,-2.769 3.539,-0.113 7.06,0.16 10.504,0.767 0.373,-2.385 0.734,-4.751 1.071,-7.084 0.625,-4.172 1.077,-8.275 1.435,-12.278 0.338,-4.004 0.568,-7.918 0.44,-11.702 -0.061,-1.891 -0.194,-3.746 -0.454,-5.544 -0.067,-0.432 -0.118,-0.939 -0.199,-1.303 l -0.282,-1.365 c -0.232,-0.827 -0.435,-1.623 -0.75,-2.435 -1.149,-3.236 -3.039,-6.056 -5.342,-8.226 -2.332,-2.142 -5.056,-3.631 -7.871,-4.354 l -1.06,-0.231 -0.263,-0.059 c -0.025,-0.004 -0.127,-0.028 -0.09,-0.018 l -0.147,-0.022 -0.586,-0.088 c -0.713,-0.093 -1.365,-0.142 -2.085,-0.159 -1.395,-0.022 -2.763,0.07 -4.057,0.352 -1.291,0.284 -2.512,0.697 -3.63,1.22 -1.107,0.557 -2.093,1.234 -2.954,1.973 -1.702,1.521 -2.826,3.343 -3.361,5.193 -0.294,0.915 -0.41,1.853 -0.455,2.757 -0.032,0.448 -0.023,0.902 0.002,1.341 l 0.061,0.658 c 0.025,-0.189 0.009,0.008 0.016,-0.006 l 0.005,0.104 0.01,0.211 0.02,0.417 c 0.12,0.628 0.264,1.523 0.518,2.199 0.242,0.709 0.534,1.358 0.852,1.934 0.417,0.736 0.885,1.312 1.358,1.772 1.783,-1.298 3.972,-2.072 6.346,-2.072 5.968,0 10.807,4.838 10.807,10.807 0,5.968 -4.739,11.005 -10.706,11.117 -4.254,0.08 -8.621,-1.128 -12.648,-5.334 -3.22,-3.363 -5.767,-8.16 -6.41,-13.252 -0.18,-1.273 -0.257,-2.586 -0.22,-3.925 0.052,-1.374 0.155,-2.614 0.438,-4.179 0.558,-2.509 1.653,-5.41 3.315,-7.943 1.678,-2.559 3.993,-4.843 6.757,-6.462 1.366,-0.829 2.841,-1.507 4.39,-1.993 1.535,-0.521 3.143,-0.877 4.789,-1.057 1.645,-0.181 3.328,-0.211 5.022,-0.05 0.824,0.076 1.724,0.212 2.566,0.388 l 0.578,0.129 0.344,0.083 0.315,0.089 1.265,0.359 c 1.664,0.575 3.31,1.295 4.857,2.246 1.536,0.965 2.981,2.114 4.29,3.43 2.563,2.683 4.605,5.987 5.779,9.685 0.315,0.903 0.541,1.898 0.766,2.865 l 0.235,1.375 c 0.102,0.551 0.126,0.979 0.194,1.477 0.231,1.925 0.324,3.874 0.342,5.837 0.1,7.863 -0.887,15.97 -1.926,24.389 -0.317,2.404 -0.642,4.844 -0.972,7.301 5.483,1.285 10.712,3.461 15.364,6.572 4.128,2.778 7.828,6.254 10.701,10.366 1.464,2.038 2.672,4.256 3.668,6.556 0.514,1.148 0.927,2.33 1.313,3.523 0.211,0.573 0.353,1.274 0.526,1.911 0.162,0.646 0.338,1.35 0.419,1.814 l 0.313,1.558 0.242,2.07 c 0.114,1.257 0.179,2.523 0.13,3.767 -0.034,2.5 -0.345,4.957 -0.906,7.313" />
    </g>
    <g
       id="g4893"
       transform="translate(-1120,94.285714)"
       style="fill:#0000ff;opacity:0.141">
      <g
         id="g4873"
         transform="matrix(1.25,0,0,-1.25,1275,770.57647)"
         style="fill:#0000ff">
        <path
           d="M 0,0 553,0"
           style="fill:#0000ff;stroke:#31313d;stroke-width:4;stroke-linecap:butt;stroke-linejoin:miter;stroke-miterlimit:10;stroke-dasharray:none;stroke-opacity:1"
           id="path4875"
           inkscape:connector-curvature="0" />
      </g>
      <g
         id="g4877"
         transform="matrix(1.25,0,0,-1.25,1275,815.57647)"
         style="fill:#0000ff">
        <path
           d="M 0,0 553,0"
           style="fill:#0000ff;stroke:#31313d;stroke-width:4;stroke-linecap:butt;stroke-linejoin:miter;stroke-miterlimit:10;stroke-dasharray:none;stroke-opacity:1"
           id="path4879"
           inkscape:connector-curvature="0" />
      </g>
      <g
         id="g4881"
         transform="matrix(1.25,0,0,-1.25,1275,860.57647)"
         style="fill:#0000ff">
        <path
           d="M 0,0 553,0"
           style="fill:#0000ff;stroke:#31313d;stroke-width:4;stroke-linecap:butt;stroke-linejoin:miter;stroke-miterlimit:10;stroke-dasharray:none;stroke-opacity:1"
           id="path4883"
           inkscape:connector-curvature="0" />
      </g>
      <g
         id="g4885"
         transform="matrix(1.25,0,0,-1.25,1275,905.57647)"
         style="fill:#0000ff">
        <path
           d="M 0,0 553,0"
           style="fill:#0000ff;stroke:#31313d;stroke-width:4;stroke-linecap:butt;stroke-linejoin:miter;stroke-miterlimit:10;stroke-dasharray:none;stroke-opacity:1"
           id="path4887"
           inkscape:connector-curvature="0" />
      </g>
      <g
         id="g4889"
         transform="matrix(1.25,0,0,-1.25,1275,950.57647)"
         style="fill:#0000ff">
        <path
           d="M 0,0 553,0"
           style="fill:#0000ff;stroke:#31313d;stroke-width:4;stroke-linecap:butt;stroke-linejoin:miter;stroke-miterlimit:10;stroke-dasharray:none;stroke-opacity:1"
           id="path4891"
           inkscape:connector-curvature="0" />
      </g>
    </g>
    <path
       d="M 578.32093,793.43508 C 529.57923,740.71409 535.29357,681.61041 535.38422,681.23219 l 0.15608,-0.65122 -17.45114,-4.18257 -69.40995,295.79913 c -10.42302,-16.09327 -28.29361,-28.97367 -50.40532,-34.27326 -40.69399,-9.75326 -80.27049,9.84329 -88.40074,43.7655 -8.13024,33.92213 18.42085,68.67213 59.11484,78.42543 40.33904,9.6682 79.07941,-7.4995 88.31925,-43.5416 l 1.11824,0.268 -0.12537,0.5231 0.0226,-0.094 0.0284,-0.1185 64.51274,-276.01858 c 5.8392,17.18208 18.05169,38.7818 42.92563,68.71638 49.23938,59.26391 -5.30607,95.53488 -5.30607,95.53488 42.48479,-9.29709 64.88037,-61.06397 17.83727,-111.94845"
       style="opacity:0.63700005;fill:#0000ff;fill-opacity:1;fill-rule:nonzero;stroke:none"
       id="path4867"
       inkscape:connector-curvature="0"
       inkscape:transform-center-x="42.857143" />
    <g
       transform="matrix(1.903753,0,0,-1.5546551,860.92323,854.05612)"
       id="g4869"
       style="opacity:0.3;fill:#0000ff">
      <path
         inkscape:connector-curvature="0"
         id="path4871"
         style="fill:#0000ff;fill-opacity:1;fill-rule:nonzero;stroke:none"
         d="m 0,0 c -12.237,0 -22.175,-8.502 -22.392,-18.502 l -0.206,0 0,0.026 0,-0.036 c 0,-0.015 0.099,-0.031 0.099,-0.047 l 0.383,-91.388 -67.387,-8.776 -0.364,78.915 c 4.106,-3.908 10.138,-6.38 16.861,-6.38 12.373,0 22.405,8.362 22.405,18.676 0,10.315 -10.027,18.512 -22.4,18.512 -12.237,0 -22.174,-8.502 -22.391,-18.502 l -0.206,0 0,0.026 0,-0.036 c 0,-0.015 0.099,-0.031 0.099,-0.047 l 0.471,-101.943 0.004,0 0.006,-1.794 78.67,9.784 -0.132,12.13 -0.374,78.574 c 4.105,-3.908 10.131,-6.38 16.854,-6.38 12.373,0 22.402,8.28 22.402,18.594 C 22.402,-8.279 12.373,0 0,0" />
    </g>
    <path
       inkscape:connector-curvature="0"
       id="path4913"
       style="opacity:0.40700001;fill:#0000ff;fill-opacity:1;fill-rule:nonzero;stroke:none"
       d="m 1037.7048,1050.1387 -87.88826,31.3142 -19.3072,-54.1887 87.88826,-31.31419 19.3072,54.18869 z m 96.0467,-95.28871 -7.7229,-21.67548 -82.3955,29.35713 -23.1686,-65.02646 -32.95826,11.74289 23.16856,65.02646 -87.88836,31.31417 -16.7329,-46.96351 -32.9583,11.74289 16.7329,46.96352 -82.3955,29.3572 7.7228,21.6754 82.3956,-29.3571 19.3071,54.1887 -82.3955,29.3572 7.7229,21.6754 82.3955,-29.3571 23.1686,65.0265 32.9583,-11.7429 -23.1686,-65.0265 87.88836,-31.3142 16.7329,46.9636 32.9583,-11.7429 -16.7329,-46.9636 82.3955,-29.3571 -7.7228,-21.6755 -82.3956,29.3571 -19.3071,-54.18868 82.3955,-29.35713 z" />
  </g>
</svg>
